<?xml version="1.0" encoding="utf-8"?><svg xmlns="http://www.w3.org/2000/svg" xmlns:xlink="http://www.w3.org/1999/xlink" preserveAspectRatio="xMidYMid" viewBox="0 0 1920 969" style="z-index:1;margin-right:-2px;display:block;background-repeat-y:initial;background-repeat-x:initial;background-color:rgb(241, 242, 243);animation-play-state:paused" ><g transform="translate(960,484.5) scale(1,1) translate(-960,-484.5)" style="transform:matrix(1, 0, 0, 1, 0, 0);animation-play-state:paused" ><defs style="animation-play-state:paused" ><linearGradient id="lg-0.865954059379398" x1="0" x2="0" y1="0" y2="1" style="animation-play-state:paused" ><stop stop-color="#0a0a0a" offset="0.3" style="animation-play-state:paused" ></stop>


<stop stop-color="#28292f" offset="0.6499999999999999" style="animation-play-state:paused" ></stop>


<stop stop-color="#28292f" offset="1" style="animation-play-state:paused" ></stop></linearGradient>


<linearGradient id="fg-lg-0.865954059379398" x1="0" x2="0" y1="0" y2="1" style="animation-play-state:paused" ><stop stop-color="#0a0a0a" stop-opacity="1" offset="0.3" style="animation-play-state:paused" ></stop>


<stop stop-color="#28292f" stop-opacity="0.66" offset="0.6499999999999999" style="animation-play-state:paused" ></stop>


<stop stop-color="#28292f" stop-opacity="0" offset="1" style="animation-play-state:paused" ></stop></linearGradient>


<style type="text/css" style="animation-play-state:paused" >path { fill: none; stroke: #ffffff; stroke-width: 2px }</style></defs>


<rect x="0" y="0" width="1920" height="969" fill="url(#lg-0.865954059379398)" style="animation-play-state:paused" ></rect>
<path d="M0 290.7 L-13440 969" style="animation-play-state:paused" ></path>
<path d="M14.76923076923077 290.7 L-13218.461538461539 969" style="animation-play-state:paused" ></path>
<path d="M29.53846153846154 290.7 L-12996.923076923076 969" style="animation-play-state:paused" ></path>
<path d="M44.30769230769231 290.7 L-12775.384615384615 969" style="animation-play-state:paused" ></path>
<path d="M59.07692307692308 290.7 L-12553.846153846154 969" style="animation-play-state:paused" ></path>
<path d="M73.84615384615384 290.7 L-12332.307692307691 969" style="animation-play-state:paused" ></path>
<path d="M88.61538461538461 290.7 L-12110.76923076923 969" style="animation-play-state:paused" ></path>
<path d="M103.38461538461539 290.7 L-11889.23076923077 969" style="animation-play-state:paused" ></path>
<path d="M118.15384615384616 290.7 L-11667.692307692309 969" style="animation-play-state:paused" ></path>
<path d="M132.92307692307693 290.7 L-11446.153846153846 969" style="animation-play-state:paused" ></path>
<path d="M147.69230769230768 290.7 L-11224.615384615385 969" style="animation-play-state:paused" ></path>
<path d="M162.46153846153845 290.7 L-11003.076923076922 969" style="animation-play-state:paused" ></path>
<path d="M177.23076923076923 290.7 L-10781.538461538461 969" style="animation-play-state:paused" ></path>
<path d="M192 290.7 L-10560 969" style="animation-play-state:paused" ></path>
<path d="M206.76923076923077 290.7 L-10338.461538461539 969" style="animation-play-state:paused" ></path>
<path d="M221.53846153846155 290.7 L-10116.923076923078 969" style="animation-play-state:paused" ></path>
<path d="M236.30769230769232 290.7 L-9895.384615384615 969" style="animation-play-state:paused" ></path>
<path d="M251.07692307692307 290.7 L-9673.846153846154 969" style="animation-play-state:paused" ></path>
<path d="M265.84615384615387 290.7 L-9452.307692307691 969" style="animation-play-state:paused" ></path>
<path d="M280.61538461538464 290.7 L-9230.76923076923 969" style="animation-play-state:paused" ></path>
<path d="M295.38461538461536 290.7 L-9009.23076923077 969" style="animation-play-state:paused" ></path>
<path d="M310.15384615384613 290.7 L-8787.692307692309 969" style="animation-play-state:paused" ></path>
<path d="M324.9230769230769 290.7 L-8566.153846153846 969" style="animation-play-state:paused" ></path>
<path d="M339.6923076923077 290.7 L-8344.615384615385 969" style="animation-play-state:paused" ></path>
<path d="M354.46153846153845 290.7 L-8123.076923076923 969" style="animation-play-state:paused" ></path>
<path d="M369.2307692307692 290.7 L-7901.538461538462 969" style="animation-play-state:paused" ></path>
<path d="M384 290.7 L-7680 969" style="animation-play-state:paused" ></path>
<path d="M398.7692307692308 290.7 L-7458.461538461538 969" style="animation-play-state:paused" ></path>
<path d="M413.53846153846155 290.7 L-7236.923076923077 969" style="animation-play-state:paused" ></path>
<path d="M428.3076923076923 290.7 L-7015.384615384615 969" style="animation-play-state:paused" ></path>
<path d="M443.0769230769231 290.7 L-6793.846153846154 969" style="animation-play-state:paused" ></path>
<path d="M457.84615384615387 290.7 L-6572.307692307692 969" style="animation-play-state:paused" ></path>
<path d="M472.61538461538464 290.7 L-6350.7692307692305 969" style="animation-play-state:paused" ></path>
<path d="M487.38461538461536 290.7 L-6129.2307692307695 969" style="animation-play-state:paused" ></path>
<path d="M502.15384615384613 290.7 L-5907.692307692308 969" style="animation-play-state:paused" ></path>
<path d="M516.9230769230769 290.7 L-5686.153846153846 969" style="animation-play-state:paused" ></path>
<path d="M531.6923076923077 290.7 L-5464.615384615385 969" style="animation-play-state:paused" ></path>
<path d="M546.4615384615385 290.7 L-5243.076923076924 969" style="animation-play-state:paused" ></path>
<path d="M561.2307692307693 290.7 L-5021.538461538461 969" style="animation-play-state:paused" ></path>
<path d="M576 290.7 L-4800 969" style="animation-play-state:paused" ></path>
<path d="M590.7692307692307 290.7 L-4578.461538461539 969" style="animation-play-state:paused" ></path>
<path d="M605.5384615384615 290.7 L-4356.923076923076 969" style="animation-play-state:paused" ></path>
<path d="M620.3076923076923 290.7 L-4135.384615384615 969" style="animation-play-state:paused" ></path>
<path d="M635.0769230769231 290.7 L-3913.8461538461543 969" style="animation-play-state:paused" ></path>
<path d="M649.8461538461538 290.7 L-3692.3076923076915 969" style="animation-play-state:paused" ></path>
<path d="M664.6153846153846 290.7 L-3470.7692307692305 969" style="animation-play-state:paused" ></path>
<path d="M679.3846153846154 290.7 L-3249.2307692307695 969" style="animation-play-state:paused" ></path>
<path d="M694.1538461538462 290.7 L-3027.6923076923085 969" style="animation-play-state:paused" ></path>
<path d="M708.9230769230769 290.7 L-2806.1538461538457 969" style="animation-play-state:paused" ></path>
<path d="M723.6923076923077 290.7 L-2584.6153846153848 969" style="animation-play-state:paused" ></path>
<path d="M738.4615384615385 290.7 L-2363.076923076924 969" style="animation-play-state:paused" ></path>
<path d="M753.2307692307693 290.7 L-2141.538461538461 969" style="animation-play-state:paused" ></path>
<path d="M768 290.7 L-1920 969" style="animation-play-state:paused" ></path>
<path d="M782.7692307692307 290.7 L-1698.461538461539 969" style="animation-play-state:paused" ></path>
<path d="M797.5384615384615 290.7 L-1476.9230769230762 969" style="animation-play-state:paused" ></path>
<path d="M812.3076923076923 290.7 L-1255.3846153846152 969" style="animation-play-state:paused" ></path>
<path d="M827.0769230769231 290.7 L-1033.8461538461543 969" style="animation-play-state:paused" ></path>
<path d="M841.8461538461538 290.7 L-812.3076923076915 969" style="animation-play-state:paused" ></path>
<path d="M856.6153846153846 290.7 L-590.7692307692305 969" style="animation-play-state:paused" ></path>
<path d="M871.3846153846154 290.7 L-369.2307692307695 969" style="animation-play-state:paused" ></path>
<path d="M886.1538461538462 290.7 L-147.69230769230853 969" style="animation-play-state:paused" ></path>
<path d="M900.9230769230769 290.7 L73.84615384615427 969" style="animation-play-state:paused" ></path>
<path d="M915.6923076923077 290.7 L295.38461538461524 969" style="animation-play-state:paused" ></path>
<path d="M930.4615384615385 290.7 L516.9230769230762 969" style="animation-play-state:paused" ></path>
<path d="M945.2307692307693 290.7 L738.461538461539 969" style="animation-play-state:paused" ></path>
<path d="M960 290.7 L960 969" style="animation-play-state:paused" ></path>
<path d="M974.7692307692307 290.7 L1181.538461538461 969" style="animation-play-state:paused" ></path>
<path d="M989.5384615384615 290.7 L1403.0769230769238 969" style="animation-play-state:paused" ></path>
<path d="M1004.3076923076923 290.7 L1624.6153846153848 969" style="animation-play-state:paused" ></path>
<path d="M1019.0769230769231 290.7 L1846.1538461538457 969" style="animation-play-state:paused" ></path>
<path d="M1033.8461538461538 290.7 L2067.6923076923085 969" style="animation-play-state:paused" ></path>
<path d="M1048.6153846153845 290.7 L2289.2307692307695 969" style="animation-play-state:paused" ></path>
<path d="M1063.3846153846155 290.7 L2510.7692307692305 969" style="animation-play-state:paused" ></path>
<path d="M1078.1538461538462 290.7 L2732.3076923076915 969" style="animation-play-state:paused" ></path>
<path d="M1092.923076923077 290.7 L2953.8461538461524 969" style="animation-play-state:paused" ></path>
<path d="M1107.6923076923076 290.7 L3175.384615384617 969" style="animation-play-state:paused" ></path>
<path d="M1122.4615384615386 290.7 L3396.923076923078 969" style="animation-play-state:paused" ></path>
<path d="M1137.2307692307693 290.7 L3618.461538461539 969" style="animation-play-state:paused" ></path>
<path d="M1152 290.7 L3840 969" style="animation-play-state:paused" ></path>
<path d="M1166.7692307692307 290.7 L4061.538461538461 969" style="animation-play-state:paused" ></path>
<path d="M1181.5384615384614 290.7 L4283.076923076922 969" style="animation-play-state:paused" ></path>
<path d="M1196.3076923076924 290.7 L4504.615384615383 969" style="animation-play-state:paused" ></path>
<path d="M1211.076923076923 290.7 L4726.153846153848 969" style="animation-play-state:paused" ></path>
<path d="M1225.8461538461538 290.7 L4947.6923076923085 969" style="animation-play-state:paused" ></path>
<path d="M1240.6153846153845 290.7 L5169.2307692307695 969" style="animation-play-state:paused" ></path>
<path d="M1255.3846153846155 290.7 L5390.7692307692305 969" style="animation-play-state:paused" ></path>
<path d="M1270.1538461538462 290.7 L5612.3076923076915 969" style="animation-play-state:paused" ></path>
<path d="M1284.923076923077 290.7 L5833.846153846152 969" style="animation-play-state:paused" ></path>
<path d="M1299.6923076923076 290.7 L6055.384615384617 969" style="animation-play-state:paused" ></path>
<path d="M1314.4615384615386 290.7 L6276.923076923078 969" style="animation-play-state:paused" ></path>
<path d="M1329.2307692307693 290.7 L6498.461538461539 969" style="animation-play-state:paused" ></path>
<path d="M1344 290.7 L6720 969" style="animation-play-state:paused" ></path>
<path d="M1358.7692307692307 290.7 L6941.538461538461 969" style="animation-play-state:paused" ></path>
<path d="M1373.5384615384614 290.7 L7163.076923076922 969" style="animation-play-state:paused" ></path>
<path d="M1388.3076923076924 290.7 L7384.615384615383 969" style="animation-play-state:paused" ></path>
<path d="M1403.076923076923 290.7 L7606.153846153848 969" style="animation-play-state:paused" ></path>
<path d="M1417.8461538461538 290.7 L7827.6923076923085 969" style="animation-play-state:paused" ></path>
<path d="M1432.6153846153845 290.7 L8049.2307692307695 969" style="animation-play-state:paused" ></path>
<path d="M1447.3846153846155 290.7 L8270.76923076923 969" style="animation-play-state:paused" ></path>
<path d="M1462.1538461538462 290.7 L8492.307692307691 969" style="animation-play-state:paused" ></path>
<path d="M1476.923076923077 290.7 L8713.846153846152 969" style="animation-play-state:paused" ></path>
<path d="M1491.6923076923076 290.7 L8935.384615384617 969" style="animation-play-state:paused" ></path>
<path d="M1506.4615384615386 290.7 L9156.923076923078 969" style="animation-play-state:paused" ></path>
<path d="M1521.2307692307693 290.7 L9378.461538461539 969" style="animation-play-state:paused" ></path>
<path d="M1536 290.7 L9600 969" style="animation-play-state:paused" ></path>
<path d="M1550.7692307692307 290.7 L9821.538461538461 969" style="animation-play-state:paused" ></path>
<path d="M1565.5384615384614 290.7 L10043.076923076922 969" style="animation-play-state:paused" ></path>
<path d="M1580.3076923076924 290.7 L10264.615384615383 969" style="animation-play-state:paused" ></path>
<path d="M1595.076923076923 290.7 L10486.153846153848 969" style="animation-play-state:paused" ></path>
<path d="M1609.8461538461538 290.7 L10707.692307692309 969" style="animation-play-state:paused" ></path>
<path d="M1624.6153846153845 290.7 L10929.23076923077 969" style="animation-play-state:paused" ></path>
<path d="M1639.3846153846155 290.7 L11150.76923076923 969" style="animation-play-state:paused" ></path>
<path d="M1654.1538461538462 290.7 L11372.307692307691 969" style="animation-play-state:paused" ></path>
<path d="M1668.923076923077 290.7 L11593.846153846152 969" style="animation-play-state:paused" ></path>
<path d="M1683.6923076923076 290.7 L11815.384615384617 969" style="animation-play-state:paused" ></path>
<path d="M1698.4615384615386 290.7 L12036.923076923078 969" style="animation-play-state:paused" ></path>
<path d="M1713.2307692307693 290.7 L12258.461538461539 969" style="animation-play-state:paused" ></path>
<path d="M1728 290.7 L12480 969" style="animation-play-state:paused" ></path>
<path d="M1742.7692307692307 290.7 L12701.538461538461 969" style="animation-play-state:paused" ></path>
<path d="M1757.5384615384614 290.7 L12923.076923076922 969" style="animation-play-state:paused" ></path>
<path d="M1772.3076923076924 290.7 L13144.615384615383 969" style="animation-play-state:paused" ></path>
<path d="M1787.076923076923 290.7 L13366.153846153848 969" style="animation-play-state:paused" ></path>
<path d="M1801.8461538461538 290.7 L13587.692307692309 969" style="animation-play-state:paused" ></path>
<path d="M1816.6153846153845 290.7 L13809.23076923077 969" style="animation-play-state:paused" ></path>
<path d="M1831.3846153846155 290.7 L14030.76923076923 969" style="animation-play-state:paused" ></path>
<path d="M1846.1538461538462 290.7 L14252.307692307691 969" style="animation-play-state:paused" ></path>
<path d="M1860.923076923077 290.7 L14473.846153846152 969" style="animation-play-state:paused" ></path>
<path d="M1875.6923076923076 290.7 L14695.384615384617 969" style="animation-play-state:paused" ></path>
<path d="M1890.4615384615386 290.7 L14916.923076923078 969" style="animation-play-state:paused" ></path>
<path d="M1905.2307692307693 290.7 L15138.461538461539 969" style="animation-play-state:paused" ></path>
<path d="M1920 290.7 L15360 969" style="animation-play-state:paused" ></path>
<g transform="matrix(1,0,0,1,0,0)" style="transform:matrix(1, 0, 0, 1, 0, 0);animation-play-state:paused" ><path d="M0 290.7 L1920 290.7" style="animation-play-state:paused" ></path></g>
<g transform="matrix(1,0,0,1,0,0)" style="transform:matrix(1, 0, 0, 1, 0, 0);animation-play-state:paused" ><path d="M0 295.8374201183432 L1920 295.8374201183432" style="animation-play-state:paused" ></path></g>
<g transform="matrix(1,0,0,1,0,0)" style="transform:matrix(1, 0, 0, 1, 0, 0);animation-play-state:paused" ><path d="M0 306.11226035502955 L1920 306.11226035502955" style="animation-play-state:paused" ></path></g>
<g transform="matrix(1,0,0,1,0,0)" style="transform:matrix(1, 0, 0, 1, 0, 0);animation-play-state:paused" ><path d="M0 321.5245207100591 L1920 321.5245207100591" style="animation-play-state:paused" ></path></g>
<g transform="matrix(1,0,0,1,0,0)" style="transform:matrix(1, 0, 0, 1, 0, 0);animation-play-state:paused" ><path d="M0 342.0742011834319 L1920 342.0742011834319" style="animation-play-state:paused" ></path></g>
<g transform="matrix(1,0,0,1,0,0)" style="transform:matrix(1, 0, 0, 1, 0, 0);animation-play-state:paused" ><path d="M0 367.7613017751479 L1920 367.7613017751479" style="animation-play-state:paused" ></path></g>
<g transform="matrix(1,0,0,1,0,0)" style="transform:matrix(1, 0, 0, 1, 0, 0);animation-play-state:paused" ><path d="M0 398.5858224852071 L1920 398.5858224852071" style="animation-play-state:paused" ></path></g>
<g transform="matrix(1,0,0,1,0,0)" style="transform:matrix(1, 0, 0, 1, 0, 0);animation-play-state:paused" ><path d="M0 434.54776331360944 L1920 434.54776331360944" style="animation-play-state:paused" ></path></g>
<g transform="matrix(1,0,0,1,0,0)" style="transform:matrix(1, 0, 0, 1, 0, 0);animation-play-state:paused" ><path d="M0 475.647124260355 L1920 475.647124260355" style="animation-play-state:paused" ></path></g>
<g transform="matrix(1,0,0,1,0,0)" style="transform:matrix(1, 0, 0, 1, 0, 0);animation-play-state:paused" ><path d="M0 521.8839053254437 L1920 521.8839053254437" style="animation-play-state:paused" ></path></g>
<g transform="matrix(1,0,0,1,0,0)" style="transform:matrix(1, 0, 0, 1, 0, 0);animation-play-state:paused" ><path d="M0 573.2581065088757 L1920 573.2581065088757" style="animation-play-state:paused" ></path></g>
<g transform="matrix(1,0,0,1,0,0)" style="transform:matrix(1, 0, 0, 1, 0, 0);animation-play-state:paused" ><path d="M0 629.7697278106508 L1920 629.7697278106508" style="animation-play-state:paused" ></path></g>
<g transform="matrix(1,0,0,1,0,0)" style="transform:matrix(1, 0, 0, 1, 0, 0);animation-play-state:paused" ><path d="M0 691.4187692307692 L1920 691.4187692307692" style="animation-play-state:paused" ></path></g>
<g transform="matrix(1,0,0,1,0,0)" style="transform:matrix(1, 0, 0, 1, 0, 0);animation-play-state:paused" ><path d="M0 758.2052307692306 L1920 758.2052307692306" style="animation-play-state:paused" ></path></g>
<g transform="matrix(1,0,0,1,0,0)" style="transform:matrix(1, 0, 0, 1, 0, 0);animation-play-state:paused" ><path d="M0 830.1291124260354 L1920 830.1291124260354" style="animation-play-state:paused" ></path></g>
<g transform="matrix(1,0,0,1,0,0)" style="transform:matrix(1, 0, 0, 1, 0, 0);animation-play-state:paused" ><path d="M0 907.1904142011833 L1920 907.1904142011833" style="animation-play-state:paused" ></path></g>
<g transform="matrix(1,0,0,1,0,0)" style="transform:matrix(1, 0, 0, 1, 0, 0);animation-play-state:paused" ><path d="M0 989.3891360946744 L1920 989.3891360946744" style="animation-play-state:paused" ></path></g>
<rect x="0" y="0" width="1920" height="969" fill="url(#fg-lg-0.865954059379398)" style="animation-play-state:paused" ></rect></g></svg>
